<?xml version="1.0" encoding="UTF-8"?>
<svg width="183px" height="200px" viewBox="0 0 183 200" version="1.1" xmlns="http://www.w3.org/2000/svg" xmlns:xlink="http://www.w3.org/1999/xlink">
    <!-- Generator: Sketch 58 (84663) - https://sketch.com -->
    <title>kean</title>
    <desc>Created with Sketch.</desc>
    <g id="Logos_BGD" stroke="none" stroke-width="1" fill="none" fill-rule="evenodd">
        <g id="kean" transform="translate(-9.000000, 0.000000)">
            <g id="kean_BGD">
                <g id="kean-copy" transform="translate(9.000000, 0.000000)">
                    <path d="M111.371119,13.8252087 C111.962771,13.5732888 112.56177,13.3380634 113.166444,13.1191987 C115.017195,12.4492487 117.476628,11.7744574 119.486144,11.3343907 C117.604841,7.05308848 114.886811,2.12487479 112.339065,2.10682722 C110.836561,2.09682805 111.106845,6.38397329 110.353923,9.77295492 C110.253255,10.2247078 110.142738,10.6784641 110.026043,11.1345576 C110.157095,11.3747913 110.286144,11.6160267 110.412354,11.8582638 C110.749082,12.5050083 111.068781,13.1611018 111.371119,13.8252087" id="Fill-1" fill="#15293F"></path>
                    <path d="M112.33389,0.103505843 C111.513689,0.103505843 110.040902,0.45509182 109.391152,2.80984975 C109.139232,3.72270451 109.012187,4.85826377 108.877629,6.060601 C108.753589,7.16928214 108.625543,8.31585977 108.398164,9.33839733 C108.309182,9.73772955 108.206845,10.1631052 108.085309,10.6378965 L107.889816,11.4016694 L108.267279,12.093823 C108.396828,12.3308848 108.520701,12.5631052 108.635726,12.7839733 C108.953589,13.3943239 109.260434,14.0240401 109.547746,14.6550918 L110.357429,16.4340568 L112.15576,15.6684474 C112.706678,15.4340568 113.276127,15.2100167 113.848247,15.003005 C115.500668,14.4046745 117.825209,13.7489149 119.914691,13.2913189 L122.304508,12.7681135 L121.320367,10.5283806 C120.128881,7.81736227 118.946578,5.6130217 117.806177,3.97646077 C115.999165,1.3836394 114.215526,0.116694491 112.353255,0.103672788 L112.33389,0.103505843 Z M112.33389,2.10684474 C112.335392,2.10684474 112.337229,2.10684474 112.339065,2.10684474 C114.886811,2.12487479 117.604841,7.05308848 119.486144,11.3343907 C117.476628,11.7744574 115.017195,12.4492487 113.166444,13.1191987 C112.56177,13.3380634 111.962771,13.5732888 111.371119,13.8252087 C111.068781,13.1611018 110.749082,12.5050083 110.412354,11.8582638 C110.286144,11.6160267 110.157095,11.3747913 110.026043,11.1345576 C110.142738,10.6784641 110.253255,10.2247078 110.353923,9.77295492 C111.10601,6.38781302 110.837229,2.10684474 112.33389,2.10684474 L112.33389,2.10684474 Z" id="Fill-2" fill="#FFFFFE"></path>
                    <path d="M139.255593,25.084808 C140.538397,24.4624374 141.883306,23.9530885 143.24808,23.5429048 C144.3601,23.2085142 145.189983,23.0171953 146.311519,23.3449082 C147.54424,23.7048414 148.747746,24.2131886 149.909015,24.7612688 C150.511018,24.2672788 151.532554,23.3928214 151.500167,22.5816361 C151.468781,21.7933222 150.564441,20.9904841 150.030384,20.4838063 C149.264441,19.7587646 148.40384,19.1327212 147.502838,18.5868114 C147.05025,18.3126878 146.58414,18.0619366 146.105509,17.8372287 C145.905342,17.7432387 144.974791,17.5053422 145.295159,17.2894825 C147.473122,17.3626043 149.746077,18.4297162 151.398331,19.8076795 C152.360768,20.6108514 153.368781,21.7627713 153.120367,23.1041736 C152.865609,24.4786311 151.318865,26.7587646 149.69399,26.5801336 C150.179466,27.5298831 150.677963,29.1196995 150.108013,31.1075125 C150.108013,31.1075125 149.813356,30.8337229 149.069282,30.4006678 C149.166945,30.0846411 149.233556,29.7430718 149.254758,29.3826377 C149.352588,27.7111853 148.482304,26.3006678 147.525042,26.2444073 C146.63005,26.1921536 145.82404,27.3340568 145.642905,28.8490818 C144.310851,28.3617696 142.625376,27.8429048 140.512688,27.3440735 C140.512688,27.3440735 140.884307,26.2205342 142.395492,25.3227045 C141.885977,25.4464107 141.379299,25.5777963 140.877796,25.6984975 C140.185309,25.8654424 136.367279,26.9883139 136.348414,26.9307179 C136.221202,26.545409 138.912688,25.2512521 139.255593,25.084808 Z M153.654257,38.6128548 C154.629549,38.2258765 155.618531,38.063606 156.662104,38.009015 C157.755927,37.9517529 158.849082,37.881803 159.945075,37.9063439 C160.927546,37.9282137 161.913022,37.9933222 162.887646,38.1220367 C163.328381,38.1803005 163.767613,38.2477462 164.204174,38.3312187 C164.363773,38.3617696 164.523706,38.3923205 164.683472,38.4228715 C164.768614,38.4392321 164.724541,38.521202 164.718197,38.5986644 C163.898831,38.6195326 163.081469,38.651586 162.263773,38.709182 C161.21586,38.7828047 160.179633,38.9305509 159.138898,39.0664441 C158.615526,39.1502504 158.090818,39.2292154 157.572454,39.3405676 C157.049917,39.4527546 156.538731,39.606177 156.02187,39.7398998 C155.022871,39.9978297 153.993489,40.1480801 152.967613,40.254424 C152.490651,40.3038397 152.013356,40.3529215 151.534558,40.3814691 C151.460601,40.3859766 151.163105,40.4380634 151.132053,40.3691152 C151.119199,40.3404007 151.070785,40.2714524 151.07429,40.2405676 C151.0798,40.1926544 151.209349,40.10601 151.245409,40.0722871 C151.935726,39.4270451 152.779633,38.9595993 153.654257,38.6128548 Z M165.108347,44.2502504 C164.384307,44.7347245 163.686311,45.2475793 163.015025,45.8035058 C162.434891,46.2841402 161.839566,46.7836394 161.338397,47.3497496 C161.004174,47.7268781 160.701669,48.1173623 160.309349,48.4383973 C159.933055,48.7462437 159.521536,49.0076795 159.108514,49.2622705 C158.913189,49.3826377 158.70985,49.4936561 158.505175,49.596828 C158.431553,49.6338898 158.356928,49.669616 158.280634,49.7005008 C158.255092,49.7108514 158.177295,49.6429048 158.15409,49.6283806 C158.084307,49.5843072 158.152087,49.3005008 158.162771,49.2277129 C158.197162,48.9926544 158.2601,48.7597663 158.34374,48.5375626 C158.600668,47.8552588 159.03773,47.1894825 159.615359,46.7375626 C159.922705,46.496995 160.266277,46.3066778 160.596828,46.1010017 C160.928715,45.8944908 161.260768,45.6893155 161.598164,45.4923205 C162.235726,45.1096828 162.934391,44.7973289 163.63005,44.5373957 C163.968114,44.4110184 164.312855,44.2799666 164.664775,44.1966611 C164.786144,44.1647746 164.907513,44.1328881 165.028715,44.1010017 C165.05576,44.093823 165.09616,44.2232053 165.108347,44.2502504 Z M152.712688,45.3412354 C151.761603,45.7589316 150.776294,46.1001669 149.795993,46.4407346 C149.343406,46.5979967 148.888314,46.7525876 148.429716,46.8911519 C148.23005,46.951586 148.033389,47.0222037 147.833055,47.0808013 C147.757262,47.103172 147.681302,47.1252087 147.604674,47.1449082 C147.585977,47.1495826 147.529382,47.0482471 147.517529,47.0312187 C147.453255,46.9405676 148.078631,46.3482471 148.156594,46.2734558 C148.5,45.9444073 148.862104,45.6405676 149.242905,45.3554257 C150.063606,44.7409015 150.965109,44.212187 151.90217,43.796828 C152.872287,43.3671119 153.903506,43.0926544 154.917529,42.7883139 C155.938898,42.481803 156.959933,42.1871452 157.998497,41.9435726 C159.88414,41.5013356 161.786978,41.2126878 163.725042,41.1883139 C163.863773,41.1866444 163.832554,41.2116861 163.846077,41.3532554 C163.079466,41.4958264 162.318364,41.6494157 161.566945,41.8602671 C160.557596,42.1435726 159.566444,42.4707846 158.575793,42.8128548 C157.586811,43.1841402 156.601336,43.5601002 155.626711,43.9676127 C154.631052,44.372788 153.695826,44.909182 152.712688,45.3412354 Z M169.684474,171.981636 C166.420701,170.54424 164.983472,172.131886 161.534224,171.96995 C158.152087,171.813022 153.844741,168.09015 151.475793,165.971285 C145.56778,160.691152 138.641235,153.812855 133.798164,147.492487 C130.517529,143.211853 128.379132,137.605843 125.96995,132.821369 C122.343907,125.622705 118.038397,117.098164 114.502671,109.85793 C113.654257,108.118865 112.650918,105.880467 111.730718,103.768447 L111.294992,102.956928 C110.800835,102.037062 110.28581,101.134057 109.759933,100.23222 C109.219366,99.3055092 108.695993,98.3602671 108.114524,97.4587646 C107.531219,96.5539232 106.94808,95.6492487 106.364608,94.7444073 C105.799499,93.8674457 105.175793,93.0203673 104.567112,92.1729549 C103.970117,91.3414023 103.340067,90.5161937 102.678464,89.7353923 C102.129716,89.08798 101.587312,88.4388982 100.988815,87.836394 C100.98197,87.8295492 101.070785,87.7385643 101.082805,87.7248748 C102.515192,88.8904841 103.825543,90.2397329 105.060601,91.6100167 C105.765442,92.3919866 106.484975,93.1777963 107.14591,93.9973289 C107.805843,94.8158598 108.465776,95.6345576 109.125543,96.4530885 C111.410851,88.8869783 119.146912,78.687813 130.405676,74.3656093 C131.004508,74.1355593 131.629048,73.9684474 132.271786,73.8539232 C129.179132,72.6716194 126.087479,71.4774624 123.083139,70.0898164 C122.12187,69.6459098 121.169783,69.1796327 120.250083,68.6540902 C119.585977,68.2746244 118.928214,67.8704508 118.337896,67.3816361 C116.778798,66.0896494 115.455259,64.5679466 114.384474,62.8487479 C113.85025,61.9906511 113.378965,61.0941569 112.969282,60.1701169 C112.776962,59.736227 112.596828,59.2966611 112.429883,58.8522538 C112.351753,58.6445743 112.277796,58.4353923 112.203673,58.2262104 C112.150083,58.0746244 112.136561,58.0891486 112.288314,58.0293823 C112.986644,59.6335559 113.802003,61.1737896 114.832721,62.5916528 C115.99399,64.1889816 117.389482,65.5554257 118.992821,66.7043406 C119.660601,67.1828047 120.401336,67.5626043 121.140067,67.9180301 C122.088481,68.3744574 123.062771,68.775793 124.043239,69.1577629 C126.069783,69.9472454 128.13005,70.6487479 130.193656,71.333389 C133.120868,72.3046745 136.066444,73.2253756 138.987312,74.2171953 C141.780301,74.8679466 144.515693,76.0001669 146.752922,77.130217 C150.006678,78.7762938 152.160267,81.5976628 155.275459,83.2186978 C159.62788,85.4841402 164.462437,83.6711185 166.93005,80.0250417 C169.998331,75.4903172 170.554257,73.433389 166.680301,72.1038397 C167.474124,70.290985 167.934891,68.3672788 167.404007,67.9190317 C166.895492,67.48798 165.029549,69.1816361 163.636895,70.5841402 C163.064274,70.1714524 162.513523,69.7207012 161.971619,69.2821369 C160.350751,67.9699499 159.703005,63.4874791 160.24207,59.8380634 C160.569282,57.6208681 162.422538,53.9499165 165.649583,52.6861436 C167.397329,52.0026711 169.066778,51.8434057 170.684474,51.5519199 C170.684474,53.5489149 170.814691,56.1978297 171.497496,56.2495826 C172.522538,56.327212 174.278798,52.5616027 174.649416,50.1489149 C174.816361,50.0435726 174.981636,49.9317195 175.146912,49.8096828 C176.936561,48.4858097 178.003339,46.1736227 178.641068,43.6809683 C178.624374,41.4741235 177.594324,39.6310518 176.046745,38.1001669 C178.90985,37.4490818 177.398998,32.8530885 174.998331,35.1352254 C173.21202,36.836227 170.746244,33.3789649 169.016694,32.5692821 C171.777963,32.6208681 173.382304,30.5809683 175.923205,30.542571 C176.086811,30.5409015 176.24207,30.557596 176.392321,30.5926544 C176.803005,31.8747913 178.228715,32.7612688 179.130217,32.9699499 C177.996661,29.2287145 174.746244,27.0617696 170.397329,25.5442404 C166.998331,24.3555927 162.96828,23.6010017 162.959933,23.5392321 C162.447412,20.2237062 159.240401,19.8196995 156.352254,20.1569282 C156.454257,18.7178631 155.18197,17.4557596 153.450918,16.4006678 C150.90818,14.8497496 147.378965,13.7412354 145.769783,13.1602671 C142.100167,11.8328881 138.925042,11.2020033 135.035058,11.3639399 C132.884808,11.4524207 128.577629,11.5375626 126.44591,11.8280467 C125.984975,11.8914858 125.525876,11.9599332 125.065109,12.0267112 C123.399165,12.2203673 121.734558,12.4691152 120.102003,12.7796327 C120.098998,12.7722871 120.095826,12.7647746 120.092821,12.757596 C117.301002,13.2823038 114.544908,14.0093489 111.903506,15.0489149 C112.190484,15.7383973 112.458932,16.4355593 112.706344,17.1397329 C112.80985,17.4343907 112.908681,17.7295492 113.003172,18.0270451 C113.020868,18.0856427 113.087145,18.1836394 113.023372,18.2165275 C112.954925,18.251586 112.886311,18.2868114 112.817863,18.3220367 C111.09783,15.1449082 109.151085,12.0445743 106.837396,9.26327212 C106.189149,8.48414023 105.50217,7.73622705 104.757763,7.04791319 C104.032387,6.37729549 103.242404,5.74991653 102.353422,5.30918197 C101.899833,5.08430718 101.415526,4.91285476 100.912688,4.84340568 C100.437229,4.77779633 99.9372287,4.76777963 99.6387312,5.20200334 C99.366611,5.59766277 99.2734558,6.11235392 99.2013356,6.57779633 C99.1202003,7.10250417 99.0782972,7.63305509 99.0398998,8.16210351 C98.9612688,9.24540902 98.9063439,10.3340568 98.7300501,11.4071786 C98.5554257,12.4701169 98.275793,13.5183639 97.990818,14.5560935 C97.4173623,16.6452421 96.7388982,18.7055092 96.2288815,20.81202 C95.7128548,22.9076795 95.3582638,25.0469115 95.2814691,27.206177 C95.2440735,28.257429 95.2387312,29.3355593 95.3893155,30.3786311 C95.5328881,31.3707846 95.8372287,32.3355593 96.2656093,33.2409015 C97.0799666,34.9622705 98.3250417,36.4609349 99.7380634,37.7248748 C100.455259,38.3664441 101.224207,38.9510851 102.035559,39.4686144 C102.755426,39.9275459 103.513856,40.3547579 104.3202,40.6429048 C104.49616,40.7058431 104.676294,40.7622705 104.860768,40.7948247 C104.931219,40.8073456 105.004174,40.8178631 105.075793,40.8145242 C105.088481,40.8138564 105.088982,40.9323873 105.089983,40.9474124 C105.091319,40.9676127 105.111686,41.0647746 105.098497,41.0806344 C105.074124,41.1100167 104.92621,41.1036728 104.894658,41.1051753 C104.676795,41.1143573 104.460434,41.0919866 104.24591,41.0559265 C103.319199,40.9003339 102.434558,40.5687813 101.580301,40.1859766 C99.7385643,39.3602671 98.0378965,38.1869783 96.6327212,36.7360601 C95.2345576,35.2924875 94.1477462,33.572788 93.5597663,31.6442404 C93.333222,30.9008347 93.2128548,30.1434057 93.1228715,29.3739566 C92.9973289,28.2993322 92.9492487,27.2200334 92.9689482,26.1382304 C92.972788,25.9298831 92.981803,25.7222037 92.9906511,25.5143573 C90.4958264,27.154591 88.1215359,28.9634391 85.751419,30.7811352 C82.5527546,33.2343907 79.3415693,35.7008347 75.8105175,37.6651085 C73.9806344,38.6829716 72.0734558,39.5096828 70.0978297,40.2 C68.0644407,40.9105175 65.9953255,41.512187 63.9459098,42.1737896 C61.9210351,42.8287145 59.906177,43.5388982 57.9996661,44.4921536 C56.4981636,45.2429048 55.1430718,46.1973289 53.812187,47.2128548 C50.3671119,49.8417362 47.1313856,52.7245409 43.9699499,55.6853088 C40.8046745,58.6499165 37.7051753,61.6856427 34.7190317,64.8308848 C31.7422371,67.966778 28.8744574,71.2093489 26.1595993,74.5751252 C23.4786311,77.8986644 20.945409,81.3429048 18.6045075,84.9146912 C16.3026711,88.427379 14.196995,92.0709516 12.336227,95.836394 C11.027212,98.4853088 9.85859766,101.201169 8.69616027,103.91803 L8.69616027,135.864775 C8.69616027,137.398998 8.71118531,138.813022 8.74624374,140.103339 C8.78130217,141.39399 8.79966611,143.118531 8.79966611,145.278631 C8.79966611,150.30217 8.34557596,154.452087 7.44073456,157.731219 C6.53255426,161.010017 4.72287145,163.205342 2.0033389,164.318865 L2.0033389,196.125209 L70.572621,196.125209 L70.572621,164.33222 C68.9699499,162.729549 67.8163606,160.84808 67.1218698,158.687813 C66.4257095,156.52571 65.9916528,154.348748 65.8163606,152.151753 C65.6410684,149.956594 65.5559265,147.323706 65.5559265,144.255259 L65.5559265,132.949917 C66.245409,133.130217 66.8931553,133.305509 67.4891486,133.475793 C83.933222,138.176795 93.2504174,155.594157 93.2504174,155.594157 C96.9365609,161.098497 99.4292154,167.128548 102.262104,173.268781 C104.529215,178.185309 107.450751,181.156928 111.547746,184.958264 C116.911519,189.934891 128.41586,197.926544 136.277129,197.993322 C140.278798,198.028381 140.799666,197.762938 144.761436,197.233723 C145.789649,197.098497 147.844741,196.792988 147.844741,196.792988 C147.844741,196.792988 149.387479,197.919866 152.582638,197.474124 C152.65192,197.464107 152.716694,197.45576 152.780301,197.445743 C154.145743,196.979967 155.427045,196.30217 156.510184,195.320534 C158.063272,193.911519 158.973456,191.946578 159.203005,189.874791 C159.295159,189.043406 159.30601,188.200334 159.229048,187.367279 C159.193322,186.981636 159.146077,186.597663 159.086477,186.215359 C159.070952,186.113523 159.055259,186.013356 159.039566,185.913189 C159.030551,185.854758 159.13005,185.863105 159.176962,185.851419 C159.711018,187.622705 160.03172,189.410684 159.862604,191.265442 C159.627546,193.370618 158.755092,195.317195 157.313022,196.873122 C157.184641,197.011686 157.052087,197.145242 156.917529,197.277129 C159.014357,197.248748 160.736227,196.492487 161.6601,195.983306 C162.735225,195.325543 163.697329,194.495826 164.494157,193.500835 C165.787312,191.884808 166.498497,189.913189 166.705008,187.866444 C166.799332,186.931553 166.766778,185.993322 166.675459,185.06177 C166.633222,184.631052 166.56611,184.202003 166.485977,183.776294 C166.460267,183.641068 166.434725,183.504174 166.408848,183.368948 C166.394992,183.295492 166.478464,183.308848 166.542237,183.292154 C167.106845,184.986644 167.51586,186.72788 167.489149,188.525876 C167.459098,190.621035 166.916361,192.682805 165.828715,194.482471 C165.30217,195.353923 164.673122,196.148581 163.963105,196.861436 C165.140568,197.023372 166.345242,196.863105 167.439065,196.470785 C167.582638,196.419032 168.066778,196.138564 168.497496,195.881469 C170.013356,194.833055 171.307179,193.475793 172.283806,191.90985 C172.826377,191.038397 173.268781,190.098497 173.592654,189.123539 C173.933222,188.093489 174.118531,187.036728 174.227045,185.959933 C174.288815,184.896494 174.277129,183.839733 174.136895,182.782972 C174.073456,182.30217 173.998331,181.824708 173.894825,181.350584 C173.858097,181.183639 173.821369,181.015025 173.784641,180.846411 C173.759599,180.741235 173.801336,180.762938 173.906511,180.732888 C174.166945,181.449082 174.407346,182.166945 174.599332,182.906511 C174.858097,183.911519 174.991653,184.934891 175.068447,185.96995 C175.100167,187.036728 175.0601,188.09015 174.884808,189.146912 C174.712855,190.188648 174.412354,191.208681 174.016694,192.186978 C173.405676,193.69616 172.54424,195.093489 171.492487,196.33222 C171.866444,196.380634 172.255426,196.372287 172.631052,196.265442 C177.507513,194.864775 179.115192,187.492487 178.833055,183.028381 C178.565943,178.834725 173.368948,173.607679 169.684474,171.981636 L169.684474,171.981636 Z" id="Fill-3" fill="#15293F"></path>
                    <path d="M173.462437,33.3751252 C173.489149,33.3626043 173.51419,33.3504174 173.540902,33.3380634 C174.171953,33.0358932 174.711185,32.7777963 175.24207,32.6437396 C175.248748,32.651419 175.253756,32.6590985 175.260434,32.666778 C174.804674,32.8146912 174.293823,33.0819699 173.769616,33.5450751 C173.679466,33.5051753 173.57596,33.4465776 173.462437,33.3751252 Z M100.495826,2.80651085 L100.495326,2.80651085 C99.0676127,2.80651085 98.3113523,3.59632721 97.987813,4.06711185 C97.4819699,4.80267112 97.3270451,5.59048414 97.2217028,6.27128548 C97.1293823,6.86694491 97.0839733,7.43689482 97.0417362,8.01686144 C97.0287145,8.19716194 97.0163606,8.37712855 97.0038397,8.5572621 C96.9429048,9.44223706 96.8853088,10.2781302 96.7530885,11.0824708 C96.5963272,12.0373957 96.3353923,13.0195326 96.0590985,14.0255426 C95.8439065,14.809182 95.6071786,15.6108514 95.3781302,16.3861436 C94.9994992,17.6684474 94.6078464,18.9943239 94.281803,20.3405676 C94.0924875,21.109182 93.930217,21.857429 93.7944908,22.5891486 L91.8901503,23.8404007 C89.4250417,25.4609349 87.0994992,27.2225376 84.5322204,29.1914858 L84.4869783,29.2260434 C81.4071786,31.5883139 78.2225376,34.0308848 74.8367279,35.9143573 C73.184975,36.833222 71.4186978,37.6163606 69.4370618,38.3086811 C68.1584307,38.7555927 66.827212,39.1701169 65.5397329,39.5709516 C64.8163606,39.7961603 64.0684474,40.0290484 63.330384,40.2674457 C61.3283806,40.9148581 59.1893155,41.657596 57.1036728,42.7003339 C55.3654424,43.5694491 53.8500835,44.6641068 52.596995,45.6202003 C49.569783,47.930217 46.4869783,50.5833055 42.6005008,54.2232053 C39.1217028,57.4813022 36.0684474,60.5 33.2662771,63.451586 C30.1397329,66.7452421 27.2240401,70.0646077 24.6003339,73.3173623 C21.8036728,76.7843072 19.2227045,80.3168614 16.9288815,83.8166945 C14.5338898,87.4714524 12.3844741,91.2168614 10.5402337,94.9489149 C9.25993322,97.5395659 8.15976628,100.079132 6.8542571,103.13005 L6.69282137,103.507513 L6.69282137,135.864775 C6.69282137,137.49399 6.70951586,138.898164 6.74373957,140.157763 C6.77863105,141.444073 6.79632721,143.166945 6.79632721,145.278631 C6.79632721,150.09399 6.36343907,154.104341 5.5096828,157.198331 C4.76961603,159.869449 3.37429048,161.592821 1.2442404,162.464942 L0,162.97429 L0,198.128548 L72.5759599,198.128548 L72.5759599,163.502337 L71.9891486,162.91586 C70.6163606,161.542738 69.6203673,159.913856 69.0290484,158.074624 C68.3846411,156.073122 67.975793,154.027212 67.8133556,151.992487 C67.6447412,149.881469 67.5592654,147.278464 67.5592654,144.255259 L67.5592654,135.586978 C82.6285476,140.261937 91.3959933,156.374624 91.4839733,156.539065 L91.5307179,156.626544 L91.5858097,156.708848 C94.5584307,161.147579 96.7283806,165.933389 99.0257095,171 C99.4861436,172.016694 99.9624374,173.066778 100.443072,174.108514 C102.896494,179.429048 106.028381,182.569282 110.184975,186.427379 C113.399332,189.409015 117.805175,192.632721 121.970284,195.050083 C127.56995,198.298831 132.377796,199.963272 136.2601,199.996661 C136.499833,200 136.728381,200 136.945576,200 C139.663272,200 140.76828,199.836394 142.774124,199.539232 C143.407346,199.445743 144.125209,199.340568 145.026711,199.218698 C145.7,199.130217 146.788648,198.973289 147.484474,198.871452 C148.222371,199.203673 149.435225,199.580968 151.134558,199.580968 C151.691319,199.580968 152.271786,199.540902 152.859432,199.457429 C152.935058,199.447412 153.002671,199.437396 153.068948,199.427379 L153.251753,199.402337 L153.426377,199.342237 C153.443239,199.335559 153.459933,199.330551 153.476628,199.325543 L156.943573,199.278798 C158.51803,199.258765 159.906511,198.90985 161.028047,198.480801 L163.69015,198.846411 C164.081469,198.899833 164.483806,198.928214 164.886144,198.928214 C165.971619,198.928214 167.058431,198.736227 168.115192,198.357262 C168.258765,198.305509 168.414023,198.240401 168.828047,198.008347 L171.235392,198.318865 C171.465776,198.348915 171.694491,198.36394 171.916528,198.36394 C172.355593,198.36394 172.781302,198.305509 173.18197,198.191987 C179.348915,196.420701 181.146912,187.873122 180.833055,182.901503 C180.499165,177.681135 174.585977,171.954925 170.494157,170.148581 C169.305509,169.626043 168.166945,169.370618 167.011686,169.370618 C166.082471,169.370618 165.268781,169.529215 164.481636,169.681135 C163.690317,169.833055 162.942905,169.978297 162.033389,169.978297 C161.899499,169.978297 161.763272,169.974958 161.628214,169.96828 C158.803673,169.838063 154.293489,165.80384 152.811352,164.47813 C145.80601,158.217195 139.455593,151.582137 135.388314,146.273957 C133.129215,143.32621 131.391653,139.601669 129.711352,136 C129.079132,134.644574 128.425209,133.242905 127.759265,131.920534 L126.810518,130.037229 C123.397663,123.263606 119.529382,115.586144 116.302838,108.978965 C115.578631,107.494491 114.658097,105.47212 113.567279,102.96828 L113.534558,102.892988 L113.059933,102.009182 C112.619199,101.188815 112.120534,100.303506 111.490484,99.2230384 C111.357763,98.9953255 111.225876,98.766611 111.094157,98.5375626 C110.984474,98.3474124 110.874124,98.1555927 110.762104,97.9627713 L111.043239,97.0323873 C112.165609,93.3170284 114.661269,89.1253756 117.890651,85.5318865 C121.675125,81.3210351 126.250918,78.1065109 131.123706,76.2358932 C131.582805,76.0594324 132.087312,75.9217028 132.623372,75.8262104 L135.785309,75.2626043 C136.640401,75.5427379 137.497162,75.8268781 138.343072,76.1141903 L138.436561,76.1459098 L138.532721,76.1682805 C141.405509,76.8375626 144.097329,78.033222 145.84975,78.9183639 C147.307513,79.6557596 148.552588,80.6951586 149.870618,81.7954925 C151.229716,82.9298831 152.635058,84.103005 154.350751,84.9958264 C155.91202,85.8083472 157.572287,86.2203673 159.285476,86.2203673 C161.107679,86.2203673 162.939065,85.7378965 164.581469,84.8252087 C166.174124,83.9402337 167.559265,82.6686144 168.589316,81.1479132 C170.419032,78.4435726 171.994992,75.8202003 171.202003,73.4492487 C170.829716,72.3373957 170.053422,71.5869783 169.205342,71.0616027 C169.33222,70.6450751 169.434057,70.2470785 169.505843,69.8811352 C169.616027,69.3068447 169.656093,68.81202 169.624374,68.3681135 C169.552588,67.3195326 169.081803,66.7136895 168.699499,66.3901503 C168.285476,66.0402337 167.751252,65.8475793 167.195326,65.8472454 C166.336394,65.8470785 165.368447,66.2295492 163.495659,67.9385643 C163.453589,67.9043406 163.411352,67.8702838 163.369449,67.836227 L163.23172,67.7248748 C163.066778,67.5913189 162.571786,66.8585977 162.271452,65.0994992 C162.005342,63.539399 161.987813,61.7283806 162.223873,60.1308848 C162.473456,58.4392321 163.967112,55.4964942 166.380134,54.551419 C167.165275,54.2440735 167.949917,54.0584307 168.752922,53.909182 C168.777963,54.2644407 168.809683,54.5903172 168.84808,54.8854758 C168.931553,55.5402337 169.050083,56.0622705 169.208681,56.4816361 C169.769616,57.9716194 170.889816,58.2126878 171.345576,58.2472454 C171.405676,58.2517529 171.467446,58.2540902 171.529215,58.2540902 C172.886477,58.2540902 174.03172,57.2143573 175.133556,54.9821369 C175.711185,53.8118531 176.183639,52.5023372 176.457429,51.3298831 C178.353923,49.8712855 179.741235,47.4662771 180.582638,44.1774624 L180.646077,43.9257095 L180.644407,43.6657763 C180.631052,41.8005008 180.058431,40.0475793 178.941569,38.4323873 C179.45576,37.6813022 179.69783,36.7437396 179.584307,35.7353923 C179.560935,35.5175292 179.519199,35.3063439 179.464107,35.1036728 L182.051753,35.7023372 L181.048414,32.3889816 C179.452421,27.1267112 174.582638,24.8828047 171.056761,23.6527546 C168.691152,22.8252087 166.064274,22.2068447 164.58197,21.8692821 C164.119032,20.663606 163.307179,19.7026711 162.188147,19.0497496 C161.058598,18.3904841 159.624541,18.0562604 157.925543,18.0562604 C157.921035,18.0562604 157.916694,18.0562604 157.91202,18.0562604 C157.331052,16.8495826 156.188481,15.7232053 154.493656,14.6899833 C152.153756,13.2627713 149.103673,12.2020033 147.281302,11.5681135 C146.967947,11.4592654 146.687479,11.3617696 146.449917,11.2759599 C142.690818,9.91619366 139.628881,9.33572621 136.212855,9.33555927 C135.800668,9.33555927 135.376461,9.34457429 134.951753,9.36227045 C134.499499,9.38096828 133.93222,9.4 133.331386,9.42020033 C130.934391,9.50083472 127.951586,9.60100167 126.175459,9.84307179 C125.830718,9.89048414 125.489649,9.94023372 125.148247,9.99015025 L124.805342,10.0400668 C123.62621,10.1774624 122.466611,10.3400668 121.341402,10.5255426 L121.323539,10.4823038 L119.722705,10.7888147 C116.863606,11.3260434 114.310518,12.015192 111.946578,12.8884808 C110.784808,11.0791319 109.602003,9.4542571 108.377462,7.98213689 C107.611352,7.06126878 106.872287,6.27462437 106.117696,5.5769616 C105.103506,4.63923205 104.19015,3.98380634 103.243239,3.51435726 C102.55409,3.17262104 101.86227,2.95225376 101.186811,2.85893155 C100.927546,2.82320534 100.70818,2.80651085 100.495826,2.80651085 Z M158.274457,49.7015025 C158.276795,49.7015025 158.278798,49.7011686 158.280634,49.7005008 C158.356928,49.669616 158.431553,49.6338898 158.505175,49.596828 C158.70985,49.4936561 158.913189,49.3826377 159.108514,49.2622705 C159.521536,49.0076795 159.933055,48.7462437 160.309349,48.4383973 C160.701669,48.1173623 161.004174,47.7268781 161.338397,47.3497496 C161.839566,46.7836394 162.434891,46.2841402 163.015025,45.8035058 C163.686311,45.2475793 164.384307,44.7347245 165.108347,44.2502504 C165.096494,44.2238731 165.05793,44.1006678 165.031052,44.1008346 C165.030217,44.1008346 165.029382,44.1008346 165.028715,44.1010017 C164.907513,44.1328881 164.786144,44.1647746 164.664775,44.1966611 C164.312855,44.2799666 163.968114,44.4110184 163.63005,44.5373957 C162.934391,44.7973289 162.235726,45.1096828 161.598164,45.4923205 C161.260768,45.6893155 160.928715,45.8944908 160.596828,46.1010017 C160.266277,46.3066778 159.922705,46.496995 159.615359,46.7375626 C159.03773,47.1894825 158.600668,47.8552588 158.34374,48.5375626 C158.2601,48.7597663 158.197162,48.9926544 158.162771,49.2277129 C158.152087,49.3005008 158.084307,49.5843072 158.15409,49.6283806 C158.175626,49.6419032 158.24424,49.7015025 158.274457,49.7015025 L158.274457,49.7015025 Z M147.603339,47.1450751 C147.60384,47.1450751 147.604174,47.1449082 147.604674,47.1449082 C147.681302,47.1252087 147.757262,47.103172 147.833055,47.0808013 C148.033389,47.0222037 148.23005,46.951586 148.429716,46.8911519 C148.888314,46.7525876 149.343406,46.5979967 149.795993,46.4407346 C150.776294,46.1001669 151.761603,45.7589316 152.712688,45.3412354 C153.695826,44.909182 154.631052,44.372788 155.626711,43.9676127 C156.601336,43.5601002 157.586811,43.1841402 158.575793,42.8128548 C159.566444,42.4707846 160.557596,42.1435726 161.566945,41.8602671 C162.318364,41.6494157 163.079466,41.4958264 163.846077,41.3532554 C163.833055,41.2160267 163.861937,41.1883139 163.737396,41.1883139 C163.733222,41.1883139 163.729215,41.1883139 163.725042,41.1883139 C161.786978,41.2126878 159.88414,41.5013356 157.998497,41.9435726 C156.959933,42.1871452 155.938898,42.481803 154.917529,42.7883139 C153.903506,43.0926544 152.872287,43.3671119 151.90217,43.796828 C150.965109,44.212187 150.063606,44.7409015 149.242905,45.3554257 C148.862104,45.6405676 148.5,45.9444073 148.156594,46.2734558 C148.078631,46.3482471 147.453255,46.9405676 147.517529,47.0312187 C147.529048,47.0477462 147.583472,47.1450751 147.603339,47.1450751 L147.603339,47.1450751 Z M151.26177,40.4045075 C151.361937,40.4045075 151.489482,40.3843072 151.534558,40.3814691 C152.013356,40.3529215 152.490651,40.3038397 152.967613,40.254424 C153.993489,40.1480801 155.022871,39.9978297 156.02187,39.7398998 C156.538731,39.606177 157.049917,39.4527546 157.572454,39.3405676 C158.090818,39.2292154 158.615526,39.1502504 159.138898,39.0664441 C160.179633,38.9305509 161.21586,38.7828047 162.263773,38.709182 C163.081469,38.651586 163.898831,38.6195326 164.718197,38.5986644 C164.724541,38.521202 164.768614,38.4392321 164.683472,38.4228715 C164.523706,38.3923205 164.363773,38.3617696 164.204174,38.3312187 C163.767613,38.2477462 163.328381,38.1803005 162.887646,38.1220367 C161.913022,37.9933222 160.927546,37.9282137 159.945075,37.9063439 C159.790317,37.903005 159.635893,37.9013356 159.481302,37.9013356 C158.540735,37.9013356 157.601503,37.9597663 156.662104,38.009015 C155.618531,38.063606 154.629549,38.2258765 153.654257,38.6128548 C152.779633,38.9595993 151.935726,39.4270451 151.245409,40.0722871 C151.209349,40.10601 151.0798,40.1926544 151.07429,40.2405676 C151.070785,40.2714524 151.119199,40.3404007 151.132053,40.3691152 C151.14424,40.3961603 151.197329,40.4045075 151.26177,40.4045075 L151.26177,40.4045075 Z M149.909015,24.7612688 C148.747746,24.2131886 147.54424,23.7048414 146.311519,23.3449082 C145.90384,23.2258765 145.534725,23.1752922 145.176294,23.1752922 C144.549249,23.1752922 143.955927,23.330217 143.24808,23.5429048 C141.883306,23.9530885 140.538397,24.4624374 139.255593,25.084808 C138.912688,25.2512521 136.221202,26.545409 136.348414,26.9307179 C136.348915,26.9322204 136.351753,26.9328881 136.356928,26.9328881 C136.556427,26.9328881 140.202504,25.8612688 140.877796,25.6984975 C141.379299,25.5777963 141.885977,25.4464107 142.395492,25.3227045 C140.884307,26.2205342 140.512688,27.3440735 140.512688,27.3440735 C142.625376,27.8429048 144.310851,28.3617696 145.642905,28.8490818 C145.8202,27.3674457 146.594825,26.2427379 147.465943,26.2427379 C147.485643,26.2427379 147.505342,26.2432387 147.525042,26.2444073 C148.482304,26.3006678 149.352588,27.7111853 149.254758,29.3826377 C149.233556,29.7430718 149.166945,30.0846411 149.069282,30.4006678 C149.813356,30.8337229 150.108013,31.1075125 150.108013,31.1075125 C150.677963,29.1196995 150.179466,27.5298831 149.69399,26.5801336 C149.754591,26.5868114 149.814858,26.5899833 149.875292,26.5899833 C151.432387,26.5899833 152.874958,24.427379 153.120367,23.1041736 C153.368781,21.7627713 152.360768,20.6108514 151.398331,19.8076795 C149.746077,18.4297162 147.473122,17.3626043 145.295159,17.2894825 C144.974791,17.5053422 145.905342,17.7432387 146.105509,17.8372287 C146.58414,18.0619366 147.05025,18.3126878 147.502838,18.5868114 C148.40384,19.1327212 149.264441,19.7587646 150.030384,20.4838063 C150.564441,20.9904841 151.468781,21.7933222 151.500167,22.5816361 C151.532554,23.3928214 150.511018,24.2672788 149.909015,24.7612688 L149.909015,24.7612688 Z M100.495326,4.80984975 C100.632888,4.80984975 100.77379,4.82420701 100.912688,4.84340568 C101.415526,4.91285476 101.899833,5.08430718 102.353422,5.30918197 C103.242404,5.74991653 104.032387,6.37729549 104.757763,7.04791319 C105.50217,7.73622705 106.189149,8.48414023 106.837396,9.26327212 C109.151085,12.0445743 111.09783,15.1449082 112.817863,18.3220367 C112.886311,18.2868114 112.954925,18.251586 113.023372,18.2165275 C113.087145,18.1836394 113.020868,18.0856427 113.003172,18.0270451 C112.908681,17.7295492 112.80985,17.4343907 112.706344,17.1397329 C112.458932,16.4355593 112.190484,15.7383973 111.903506,15.0489149 C114.544908,14.0093489 117.301002,13.2823038 120.092821,12.757596 C120.095826,12.7647746 120.098998,12.7722871 120.102003,12.7796327 C121.734558,12.4691152 123.399165,12.2203673 125.065109,12.0267112 C125.525876,11.9599332 125.984975,11.8914858 126.44591,11.8280467 C128.577629,11.5375626 132.884808,11.4524207 135.035058,11.3639399 C135.434891,11.3472454 135.826711,11.3388982 136.212688,11.3388982 C139.582471,11.3390651 142.477295,11.9692821 145.769783,13.1602671 C147.378965,13.7412354 150.90818,14.8497496 153.450918,16.4006678 C155.18197,17.4557596 156.454257,18.7178631 156.352254,20.1569282 C156.872454,20.0961603 157.402337,20.0594324 157.925376,20.0595993 C160.307679,20.0595993 162.539733,20.8207012 162.959933,23.5392321 C162.96828,23.6010017 166.998331,24.3555927 170.397329,25.5442404 C174.746244,27.0617696 177.996661,29.2287145 179.130217,32.9699499 C178.228715,32.7612688 176.803005,31.8747913 176.392321,30.5926544 C176.248748,30.5590985 176.100167,30.542404 175.944908,30.542404 C175.93823,30.542404 175.929883,30.542404 175.923205,30.542571 C173.414023,30.5804674 171.81803,32.5702838 169.1202,32.5702838 C169.085142,32.5702838 169.051753,32.5699499 169.016694,32.5692821 C170.412354,33.2225376 172.287145,35.5998331 173.898164,35.5998331 C174.283806,35.5998331 174.652755,35.463606 174.998331,35.1352254 C175.469115,34.6874791 175.906511,34.5045075 176.282137,34.5045075 C177.823038,34.5048414 178.348915,37.5767947 176.046745,38.1001669 C177.594324,39.6310518 178.624374,41.4741235 178.641068,43.6809683 C178.003339,46.1736227 176.936561,48.4858097 175.146912,49.8096828 C174.981636,49.9317195 174.816361,50.0435726 174.649416,50.1489149 C174.282137,52.5372287 172.559265,56.2507513 171.529215,56.2507513 C171.517529,56.2507513 171.507513,56.2504174 171.497496,56.2495826 C170.814691,56.1978297 170.684474,53.5489149 170.684474,51.5519199 C169.066778,51.8434057 167.397329,52.0026711 165.649583,52.6861436 C162.422538,53.9499165 160.569282,57.6208681 160.24207,59.8380634 C159.703005,63.4874791 160.350751,67.9699499 161.971619,69.2821369 C162.513523,69.7207012 163.064274,70.1714524 163.636895,70.5841402 C164.879132,69.333222 166.497663,67.8504174 167.193656,67.8505843 C167.278798,67.8505843 167.348915,67.8724541 167.404007,67.9190317 C167.934891,68.3672788 167.474124,70.290985 166.680301,72.1038397 C170.554257,73.433389 169.998331,75.4903172 166.93005,80.0250417 C165.210184,82.5664441 162.340568,84.2170284 159.285476,84.2170284 C157.957429,84.2170284 156.594157,83.9050083 155.275459,83.2186978 C152.160267,81.5976628 150.006678,78.7762938 146.752922,77.130217 C144.515693,76.0001669 141.780301,74.8679466 138.987312,74.2171953 C136.066444,73.2253756 133.120868,72.3046745 130.193656,71.333389 C128.13005,70.6487479 126.069783,69.9472454 124.043239,69.1577629 C123.062771,68.775793 122.088481,68.3744574 121.140067,67.9180301 C120.401336,67.5626043 119.660601,67.1828047 118.992821,66.7043406 C117.389482,65.5554257 115.99399,64.1889816 114.832721,62.5916528 C113.802003,61.1737896 112.986644,59.6335559 112.288314,58.0293823 C112.136561,58.0891486 112.150083,58.0746244 112.203673,58.2262104 C112.277796,58.4353923 112.351753,58.6445743 112.429883,58.8522538 C112.596828,59.2966611 112.776962,59.736227 112.969282,60.1701169 C113.378965,61.0941569 113.85025,61.9906511 114.384474,62.8487479 C115.455259,64.5679466 116.778798,66.0896494 118.337896,67.3816361 C118.928214,67.8704508 119.585977,68.2746244 120.250083,68.6540902 C121.169783,69.1796327 122.12187,69.6459098 123.083139,70.0898164 C126.087479,71.4774624 129.179132,72.6716194 132.271786,73.8539232 C131.629048,73.9684474 131.004508,74.1355593 130.405676,74.3656093 C119.146912,78.687813 111.410851,88.8869783 109.125543,96.4530885 C108.465776,95.6345576 107.805843,94.8158598 107.14591,93.9973289 C106.484975,93.1777963 105.765442,92.3919866 105.060601,91.6100167 C103.825543,90.2397329 102.515192,88.8904841 101.082805,87.7248748 C101.070785,87.7385643 100.98197,87.8295492 100.988815,87.836394 C101.587312,88.4388982 102.129716,89.08798 102.678464,89.7353923 C103.340067,90.5161937 103.970117,91.3414023 104.567112,92.1729549 C105.175793,93.0203673 105.799499,93.8674457 106.364608,94.7444073 C106.94808,95.6492487 107.531219,96.5539232 108.114524,97.4587646 C108.695993,98.3602671 109.219366,99.3055092 109.759933,100.23222 C110.28581,101.134057 110.800835,102.037062 111.294992,102.956928 L111.730718,103.768447 C112.650918,105.880467 113.654257,108.118865 114.502671,109.85793 C118.038397,117.098164 122.343907,125.622705 125.96995,132.821369 C128.379132,137.605843 130.517529,143.211853 133.798164,147.492487 C138.641235,153.812855 145.56778,160.691152 151.475793,165.971285 C153.844741,168.09015 158.152087,171.813022 161.534224,171.96995 C161.705676,171.978297 161.871452,171.981636 162.033389,171.981636 C164.098164,171.981636 165.432053,171.373957 167.011686,171.373957 C167.799666,171.373957 168.651085,171.525876 169.684474,171.981636 C173.368948,173.607679 178.565943,178.834725 178.833055,183.028381 C179.115192,187.492487 177.507513,194.864775 172.631052,196.265442 C172.395659,196.33222 172.155259,196.360601 171.916528,196.360601 C171.774624,196.360601 171.632721,196.350584 171.492487,196.33222 C172.54424,195.093489 173.405676,193.69616 174.016694,192.186978 C174.412354,191.208681 174.712855,190.188648 174.884808,189.146912 C175.0601,188.09015 175.100167,187.036728 175.068447,185.96995 C174.991653,184.934891 174.858097,183.911519 174.599332,182.906511 C174.407346,182.166945 174.166945,181.449082 173.906511,180.732888 C173.801336,180.762938 173.759599,180.741235 173.784641,180.846411 C173.821369,181.015025 173.858097,181.183639 173.894825,181.350584 C173.998331,181.824708 174.073456,182.30217 174.136895,182.782972 C174.277129,183.839733 174.288815,184.896494 174.227045,185.959933 C174.118531,187.036728 173.933222,188.093489 173.592654,189.123539 C173.268781,190.098497 172.826377,191.038397 172.283806,191.90985 C171.307179,193.475793 170.013356,194.833055 168.497496,195.881469 C168.066778,196.138564 167.582638,196.419032 167.439065,196.470785 C166.63005,196.761269 165.760434,196.924875 164.886144,196.924875 C164.578297,196.924875 164.269616,196.904841 163.963105,196.861436 C164.673122,196.148581 165.30217,195.353923 165.828715,194.482471 C166.916361,192.682805 167.459098,190.621035 167.489149,188.525876 C167.51586,186.72788 167.106845,184.986644 166.542237,183.292154 C166.478464,183.308848 166.394992,183.295492 166.408848,183.368948 C166.434725,183.504174 166.460267,183.641068 166.485977,183.776294 C166.56611,184.202003 166.633222,184.631052 166.675459,185.06177 C166.766778,185.993322 166.799332,186.931553 166.705008,187.866444 C166.498497,189.913189 165.787312,191.884808 164.494157,193.500835 C163.697329,194.495826 162.735225,195.325543 161.6601,195.983306 C160.736227,196.492487 159.014357,197.248748 156.917529,197.277129 C157.052087,197.145242 157.184641,197.011686 157.313022,196.873122 C158.755092,195.317195 159.627546,193.370618 159.862604,191.265442 C160.03172,189.410684 159.711018,187.622705 159.176962,185.851419 C159.13005,185.863105 159.030551,185.854758 159.039566,185.913189 C159.055259,186.013356 159.070952,186.113523 159.086477,186.215359 C159.146077,186.597663 159.193322,186.981636 159.229048,187.367279 C159.30601,188.200334 159.295159,189.043406 159.203005,189.874791 C158.973456,191.946578 158.063272,193.911519 156.510184,195.320534 C155.427045,196.30217 154.145743,196.979967 152.780301,197.445743 C152.716694,197.45576 152.65192,197.464107 152.582638,197.474124 C152.054925,197.547579 151.572788,197.577629 151.134725,197.577629 C148.920367,197.577629 147.844741,196.792988 147.844741,196.792988 C147.844741,196.792988 145.789649,197.098497 144.761436,197.233723 C141.031553,197.731219 140.351753,197.996661 136.945576,197.996661 C136.73389,197.996661 136.511519,197.996661 136.277129,197.993322 C128.41586,197.926544 116.911519,189.934891 111.547746,184.958264 C107.450751,181.156928 104.529215,178.185309 102.262104,173.268781 C99.4292154,167.128548 96.9365609,161.098497 93.2504174,155.594157 C93.2504174,155.594157 83.933222,138.176795 67.4891486,133.475793 C66.8931553,133.305509 66.245409,133.130217 65.5559265,132.949917 L65.5559265,144.255259 C65.5559265,147.323706 65.6410684,149.956594 65.8163606,152.151753 C65.9916528,154.348748 66.4257095,156.52571 67.1218698,158.687813 C67.8163606,160.84808 68.9699499,162.729549 70.572621,164.33222 L70.572621,196.125209 L2.0033389,196.125209 L2.0033389,164.318865 C4.72287145,163.205342 6.53255426,161.010017 7.44073456,157.731219 C8.34557596,154.452087 8.79966611,150.30217 8.79966611,145.278631 C8.79966611,143.118531 8.78130217,141.39399 8.74624374,140.103339 C8.71118531,138.813022 8.69616027,137.398998 8.69616027,135.864775 L8.69616027,103.91803 C9.85859766,101.201169 11.027212,98.4853088 12.336227,95.836394 C14.196995,92.0709516 16.3026711,88.427379 18.6045075,84.9146912 C20.945409,81.3429048 23.4786311,77.8986644 26.1595993,74.5751252 C28.8744574,71.2093489 31.7422371,67.966778 34.7190317,64.8308848 C37.7051753,61.6856427 40.8046745,58.6499165 43.9699499,55.6853088 C47.1313856,52.7245409 50.3671119,49.8417362 53.812187,47.2128548 C55.1430718,46.1973289 56.4981636,45.2429048 57.9996661,44.4921536 C59.906177,43.5388982 61.9210351,42.8287145 63.9459098,42.1737896 C65.9953255,41.512187 68.0644407,40.9105175 70.0978297,40.2 C72.0734558,39.5096828 73.9806344,38.6829716 75.8105175,37.6651085 C79.3415693,35.7008347 82.5527546,33.2343907 85.751419,30.7811352 C88.1215359,28.9634391 90.4958264,27.154591 92.9906511,25.5143573 C92.981803,25.7222037 92.972788,25.9298831 92.9689482,26.1382304 C92.9492487,27.2200334 92.9973289,28.2993322 93.1228715,29.3739566 C93.2128548,30.1434057 93.333222,30.9008347 93.5597663,31.6442404 C94.1477462,33.572788 95.2345576,35.2924875 96.6327212,36.7360601 C98.0378965,38.1869783 99.7385643,39.3602671 101.580301,40.1859766 C102.434558,40.5687813 103.319199,40.9003339 104.24591,41.0559265 C104.428047,41.0864775 104.611352,41.1071786 104.795659,41.1071786 C104.828548,41.1071786 104.861603,41.1066778 104.894658,41.1051753 C104.92621,41.1036728 105.074124,41.1100167 105.098497,41.0806344 C105.111686,41.0647746 105.091319,40.9676127 105.089983,40.9474124 C105.088982,40.9323873 105.088481,40.8145242 105.07596,40.8145242 C105.075793,40.8145242 105.075793,40.8145242 105.075793,40.8145242 C105.066611,40.8148581 105.057596,40.815192 105.048414,40.815192 C104.985643,40.815192 104.922204,40.8056761 104.860768,40.7948247 C104.676294,40.7622705 104.49616,40.7058431 104.3202,40.6429048 C103.513856,40.3547579 102.755426,39.9275459 102.035559,39.4686144 C101.224207,38.9510851 100.455259,38.3664441 99.7380634,37.7248748 C98.3250417,36.4609349 97.0799666,34.9622705 96.2656093,33.2409015 C95.8372287,32.3355593 95.5328881,31.3707846 95.3893155,30.3786311 C95.2387312,29.3355593 95.2440735,28.257429 95.2814691,27.206177 C95.3582638,25.0469115 95.7128548,22.9076795 96.2288815,20.81202 C96.7388982,18.7055092 97.4173623,16.6452421 97.990818,14.5560935 C98.275793,13.5183639 98.5554257,12.4701169 98.7300501,11.4071786 C98.9063439,10.3340568 98.9612688,9.24540902 99.0398998,8.16210351 C99.0782972,7.63305509 99.1202003,7.10250417 99.2013356,6.57779633 C99.2734558,6.11235392 99.366611,5.59766277 99.6387312,5.20200334 C99.8499165,4.89465776 100.16227,4.80984975 100.495326,4.80984975 L100.495326,4.80984975 Z" id="Fill-4" fill="#FFFFFE"></path>
                    <path d="M7.5442404,54.736227 C8.31051753,58.3270451 8.69616027,63.0517529 8.69616027,68.9098497 L8.69616027,100.5399 C8.75926544,100.360267 8.82203673,100.180467 8.88530885,100.000668 C9.5884808,98.0048414 10.3529215,96.0375626 11.2086811,94.1020033 C12.0751252,92.1420701 13.0118531,90.2143573 13.9979967,88.312187 C15.9944908,84.4677796 18.3196995,80.7782972 20.8048414,77.233222 C23.2821369,73.6988314 25.9449082,70.2894825 28.7732888,67.0292154 C31.6287145,63.7382304 34.6143573,60.5656093 37.7217028,57.5111853 C40.1131886,55.160601 42.5762938,52.8641068 45.0998331,50.6557596 C46.6694491,49.2824708 48.2612688,47.9347245 49.90601,46.6519199 C51.1550918,45.6776294 52.4400668,44.754591 53.7358932,43.8439065 C56.9153589,41.609015 60.7427379,40.4823038 64.4457429,39.4604341 C66.4973289,38.8941569 68.5584307,38.3604341 70.572621,37.6979967 L70.572621,13.672621 L2.0033389,13.672621 L2.0033389,47.148414 C4.92988314,48.6143573 6.77629382,51.1435726 7.5442404,54.736227" id="Fill-5" fill="#15293F"></path>
                    <path d="M72.5759599,11.6692821 L0,11.6692821 L0,48.3854758 L1.10617696,48.9395659 C3.4803005,50.1287145 4.94540902,52.1619366 5.5851419,55.1549249 C6.32003339,58.5989983 6.69282137,63.2270451 6.69282137,68.9098497 L6.69282137,112.276127 L10.5859766,101.204341 L10.7751252,100.665609 C11.5085142,98.5838063 12.2499165,96.7015025 13.0409015,94.91202 C13.851419,93.078798 14.7462437,91.2215359 15.7766277,89.2342237 C17.5806344,85.7604341 19.7622705,82.2105175 22.4452421,78.3831386 C24.8731219,74.9193656 27.5111853,71.5410684 30.2866444,68.3420701 C33.0772955,65.1255426 36.051419,61.9621035 39.1260434,58.9398998 C41.5537563,56.5535893 44.0075125,54.2737896 46.4190317,52.1634391 C48.224207,50.5841402 49.7237062,49.3347245 51.1380634,48.2315526 C52.4312187,47.2228715 53.7592654,46.2761269 54.887813,45.4829716 C57.718197,43.4934891 61.1322204,42.4529215 64.9786311,41.3916528 C65.384808,41.2794658 65.7911519,41.1687813 66.1976628,41.0579299 C67.8388982,40.6105175 69.5358932,40.1479132 71.1984975,39.6010017 L72.5759599,39.1480801 L72.5759599,11.6692821 Z M70.572621,13.672621 L70.572621,37.6979967 C68.5584307,38.3604341 66.4973289,38.8941569 64.4457429,39.4604341 C60.7427379,40.4823038 56.9153589,41.609015 53.7358932,43.8439065 C52.4400668,44.754591 51.1550918,45.6776294 49.90601,46.6519199 C48.2612688,47.9347245 46.6694491,49.2824708 45.0998331,50.6557596 C42.5762938,52.8641068 40.1131886,55.160601 37.7217028,57.5111853 C34.6143573,60.5656093 31.6287145,63.7382304 28.7732888,67.0292154 C25.9449082,70.2894825 23.2821369,73.6988314 20.8048414,77.233222 C18.3196995,80.7782972 15.9944908,84.4677796 13.9979967,88.312187 C13.0118531,90.2143573 12.0751252,92.1420701 11.2086811,94.1020033 C10.3529215,96.0375626 9.5884808,98.0048414 8.88530885,100.000668 C8.82203673,100.180467 8.75926544,100.360267 8.69616027,100.5399 L8.69616027,68.9098497 C8.69616027,63.0517529 8.31051753,58.3270451 7.5442404,54.736227 C6.77629382,51.1435726 4.92988314,48.6143573 2.0033389,47.148414 L2.0033389,13.672621 L70.572621,13.672621 L70.572621,13.672621 Z" id="Fill-6" fill="#FFFFFE"></path>
                </g>
            </g>
        </g>
    </g>
</svg>