<?xml version="1.0" encoding="UTF-8"?>
<svg version="1.1" viewBox="0 0 2048 2048" width="2500" height="2500" xmlns="http://www.w3.org/2000/svg">
<path transform="translate(597,537)" d="m0 0h254l17 44 21 55 19 50 18 47 16 42 42 110 11 29 21 55 20 52 17 45 5 13 1 1 19-49 48-123 19-49 18-46 16-41 19-49 36-92 9-25 9-32 5-22 2-15h244l4 4v39l-1 1-26 3-36 7-15 5-9 6-6 8-5 14-1 5v557l4 14 6 9 8 7 12 7 21 6 30 5 18 2 1 40-4 4h-326l-3-3v-41l46-4 26-4 12-4 9-6 10-9 6-10 4-12 1-8 1-538h-2l-3 10-13 32-126 315-43 107-43 108-22 55h-32l-13-34-26-70-33-88-19-51-16-43-15-40-22-59-15-40-16-43-15-40-22-59-18-48-8-21v466l2 29 4 27 5 19 7 16 7 11 7 7 14 8 16 6 28 8 22 5 13 2v41l-3 3h-298l-3-3v-41l35-5 23-5 15-5 12-6 11-9 9-14 6-15 3-12 3-23 2-32v-435l-3-20-3-12-9-19-9-11-10-9-16-9-14-5-15-4-17-3-18-2-1-2v-38z"/>
</svg>
