<svg xmlns="http://www.w3.org/2000/svg" version="1.1" xmlns:xlink="http://www.w3.org/1999/xlink" width="2000" height="1500" viewBox="0 0 2000 1500"><rect width="2000" height="1500" x="0" y="0" id="background" stroke="transparent" fill="#a8dfea"></rect><svg xml:space="preserve" width="1500" height="1125" data-version="2" data-id="lg_C0OddC5LaDL9Bq5rtr" viewBox="0 0 234 374" x="250" y="187.5"><rect width="100%" height="100%" fill="transparent"></rect><path d="M227.88 369.15q-13.86-1.98-31.68-1.98l-23.76.5q-6.93.49-19.8.49-.5-3.46-.5-10.39l-9.4.49q-1.49-26.73-1.49-88.6l-.99-60.89q-1.48 3.96-5.69 15.84-4.21 11.88-8.17 17.58-3.96 5.69-7.42 5.69-3.96 0-9.9-9.9-7.43-.5-17.82-25.25-.5 11.88-.5 34.65 0 43.56 4.95 118.8-19.3 2.97-41.08 2.97l-15.84.5q-11.88 0-18.56-2.23-6.69-2.23-6.69-9.16h-2.47q-3.96 0-6.93-5.94-.99-2.97-1.24-23.51-.25-20.54-.25-57.17 0-134.15 1.49-261.36Q17.5 5.82 34.33 5.82q9.41 0 14.36.5l15.84.49q8.91 0 14.35-.49l6.93 10.39 2.97-.49q9.41 10.89 20.79 44.55l4.46 12.37q3.46-16.33 11.14-37.37 7.67-21.04 14.6-30.94 6.93.99 11.88.99 8.91 0 32.67-.99 19.3-1.48 35.64-1.48l-.5 9.9h10.4q-.5 12.37-.5 42.57l.5 51.97q.49 17.33.49 52.47v18.32q0 18.31-.99 27.72v-.5zM214.51 195.9q.99-9.9.99-29.2v-19.31q0-33.66-.49-50.49l-.5-50.98q0-25.25.5-37.62-15.35 0-34.65 1.48l-30.69.99q-6.93 0-7.92-.49-4.46 5.94-9.9 21.53-5.45 15.59-9.9 30.44-2.97 9.9-5.69 17.82-2.73 7.92-3.72 7.43-2.97 0-6.93-8.91-3.96-8.91-11.88-29.21-4.45-12.37-8.91-23.51-4.45-11.14-7.92-14.6h-.49q-5.45.49-17.33.49l-17.82-.49h-7.92q-16.33 0-24.25 2.47Q7.6 140.46 7.6 271.64q0 52.47.75 67.07.74 14.6 2.72 14.6l37.12.5q18.81 0 32.18-1.98-4.46-67.82-4.46-114.35 0-37.12 2.97-73.26l1.49 4.95 3.96 10.4q7.92 22.77 14.35 38.11 6.44 15.35 10.89 15.35 1.98 0 6.93-11.88 4.95-11.88 9.9-25.74 10.89-28.71 14.36-34.65 4.45 40.09 5.44 125.73 0 11.38.5 32.42.49 21.04.99 34.4l31.18-.49h17.82q5.45 0 16.34.99z"></path><rect width="227.7" height="366.3" x="-113.85" y="-183.15" fill="none" rx="0" ry="0" transform="translate(117 187)"></rect></svg></svg>